<?xml version="1.0" encoding="UTF-8"?>
<svg id="SVGRoot" version="1.1" viewBox="0 0 400 400" xmlns="http://www.w3.org/2000/svg">
 <g stroke="#000">
  <path d="m278.69 393.73v-43.73h51.306" fill="none" stroke-width="14.394"/>
  <path d="m285.95 370v-13.699h15.634c15.283 0 15.613 0.0212 14.72 0.94351-0.6778 0.69942-25.669 22.493-29.774 25.964-0.46043 0.38935-0.57952-2.3251-0.57952-13.209z" stroke-width="18.105"/>
  <path d="m17.093 13.73v380h273.08l39.011-38v-342z" fill="none" stroke-width="13.016"/>
 </g>
 <g>
  <g>
   <rect x="21.683" y="18.73" width="252.42" height="370" fill="#fff" stroke-width="0"/>
   <rect x="269.52" y="18.73" width="50.484" height="325" rx="0" ry="0" fill="#fff" stroke-width="0"/>
   <path transform="matrix(.48868 -.16054 .15363 .54427 122.6 48.873)" d="m375.92 253.65-83.043-29.591-22.814 85.155-37.796-79.645-76.346 44.081 29.591-83.043-85.155-22.814 79.645-37.796-44.081-76.346 83.043 29.591 22.814-85.155 37.796 79.645 76.346-44.081-29.591 83.043 85.155 22.814-79.645 37.796z" fill="#ff0" stroke="#000" stroke-width="10.938"/>
  </g>
  <text fill="black" font-family="sans-serif" font-size="40px" style="line-height:1.25;shape-inside:url(#rect1539);white-space:pre" xml:space="preserve"/>
 </g>
</svg>
