<?xml version="1.0" encoding="UTF-8"?>
<svg id="SVGRoot" version="1.1" viewBox="0 0 400 400" xmlns="http://www.w3.org/2000/svg">
 <g>
  <g transform="matrix(.75964 0 0 .75964 37.748 127.45)" fill="#e5002d" stroke="#000" stroke-width="5.2657">
   <ellipse cx="178.86" cy="216.84" rx="94.758" ry="93.867" stroke-linejoin="round" style="paint-order:normal"/>
   <g transform="translate(81.407 -79.589)">
    <path d="m80 205v-35h35v35"/>
    <path d="m136.85 212.01-21.849-7.0109"/>
    <path d="m80 205v-35h35v35"/>
    <path d="m136.85 212.01-21.849-7.0109"/>
    <g transform="rotate(36 97.927 296.67)">
     <path d="m80 205v-35h35v35"/>
     <path d="m136.85 212.01-21.849-7.0109"/>
    </g>
    <g transform="rotate(72 97.927 296.67)">
     <path d="m80 205v-35h35v35"/>
     <path d="m136.85 212.01-21.849-7.0109"/>
    </g>
    <g transform="rotate(108 97.927 296.67)">
     <path d="m80 205v-35h35v35"/>
     <path d="m136.85 212.01-21.849-7.0109"/>
    </g>
    <g transform="rotate(144 97.927 296.67)">
     <path d="m80 205v-35h35v35"/>
     <path d="m136.85 212.01-21.849-7.0109"/>
    </g>
    <g transform="rotate(180 97.927 296.67)">
     <path d="m80 205v-35h35v35"/>
     <path d="m136.85 212.01-21.849-7.0109"/>
    </g>
    <g transform="rotate(216 97.927 296.67)">
     <path d="m80 205v-35h35v35"/>
     <path d="m136.85 212.01-21.849-7.0109"/>
    </g>
    <g transform="rotate(252 97.927 296.67)">
     <path d="m80 205v-35h35v35"/>
     <path d="m136.85 212.01-21.849-7.0109"/>
    </g>
    <g transform="rotate(-72 97.927 296.67)">
     <path d="m80 205v-35h35v35"/>
     <path d="m136.85 212.01-21.849-7.0109"/>
    </g>
    <g transform="rotate(-36 97.927 296.67)">
     <path d="m80 205v-35h35v35"/>
     <path d="m136.85 212.01-21.849-7.0109"/>
    </g>
   </g>
  </g>
  <g transform="matrix(.63575 .1574 -.15765 .65265 225.25 18.423)" fill="#207dff" stroke="#000" stroke-width="6.032">
   <ellipse cx="178.86" cy="216.84" rx="94.758" ry="93.867" stroke-linejoin="round" style="paint-order:normal"/>
   <g transform="translate(81.407 -79.589)">
    <path d="m80 205v-35h35v35"/>
    <path d="m136.85 212.01-21.849-7.0109"/>
    <path d="m80 205v-35h35v35"/>
    <path d="m136.85 212.01-21.849-7.0109"/>
    <g transform="rotate(36 97.927 296.67)">
     <path d="m80 205v-35h35v35"/>
     <path d="m136.85 212.01-21.849-7.0109"/>
    </g>
    <g transform="rotate(72 97.927 296.67)">
     <path d="m80 205v-35h35v35"/>
     <path d="m136.85 212.01-21.849-7.0109"/>
    </g>
    <g transform="rotate(108 97.927 296.67)">
     <path d="m80 205v-35h35v35"/>
     <path d="m136.85 212.01-21.849-7.0109"/>
    </g>
    <g transform="rotate(144 97.927 296.67)">
     <path d="m80 205v-35h35v35"/>
     <path d="m136.85 212.01-21.849-7.0109"/>
    </g>
    <g transform="rotate(180 97.927 296.67)">
     <path d="m80 205v-35h35v35"/>
     <path d="m136.85 212.01-21.849-7.0109"/>
    </g>
    <g transform="rotate(216 97.927 296.67)">
     <path d="m80 205v-35h35v35"/>
     <path d="m136.85 212.01-21.849-7.0109"/>
    </g>
    <g transform="rotate(252 97.927 296.67)">
     <path d="m80 205v-35h35v35"/>
     <path d="m136.85 212.01-21.849-7.0109"/>
    </g>
    <g transform="rotate(-72 97.927 296.67)">
     <path d="m80 205v-35h35v35"/>
     <path d="m136.85 212.01-21.849-7.0109"/>
    </g>
    <g transform="rotate(-36 97.927 296.67)">
     <path d="m80 205v-35h35v35"/>
     <path d="m136.85 212.01-21.849-7.0109"/>
    </g>
   </g>
  </g>
  <text transform="matrix(3.4223 0 0 3.4223 -84.821 -143.82)" fill="#000000" font-family="sans-serif" font-size="40px" style="line-height:1.25;shape-inside:url(#rect4093);white-space:pre" xml:space="preserve"/>
  <circle cx="174.04" cy="291.24" r="30.124" fill="#727272" style="paint-order:normal"/>
  <circle cx="305.77" cy="187.88" r="23.089" fill="#727272" style="paint-order:normal"/>
 </g>
</svg>
